<svg width="256" height="256" viewBox="0 0 67.733 67.733" xmlns="http://www.w3.org/2000/svg" xmlns:xlink="http://www.w3.org/1999/xlink">
  <defs>
    <linearGradient id="b">
      <stop offset="0"/>
      <stop stop-opacity="0" offset="1"/>
    </linearGradient>
    <linearGradient id="a" x1="-1615.3" x2="-106.61" y1="-794.65" y2="-794.65" gradientTransform="translate(1937.6 797.96)" gradientUnits="userSpaceOnUse">
      <stop stop-color="#0055d4" offset="0"/>
      <stop stop-color="#0cf" offset="1"/>
    </linearGradient>
    <linearGradient id="c" x1="-1615.3" x2="-106.61" y1="-794.65" y2="-794.65" gradientTransform="matrix(.04417 0 0 .04417 71.343 60.555)" gradientUnits="userSpaceOnUse" xlink:href="#a"/>
    <linearGradient id="d" x1="-2382.5" x2="-2390.2" y1="-262.85" y2="-254.79" gradientTransform="translate(2413.4 291.1)" gradientUnits="userSpaceOnUse" xlink:href="#b"/>
    <linearGradient id="e" x1="-2380.1" x2="-2372.9" y1="-266.6" y2="-272.67" gradientTransform="translate(2413.4 291.1)" gradientUnits="userSpaceOnUse" xlink:href="#b"/>
  </defs>
  <path fill="#06072b" d="M-160.644 87.148h100v100h-100z"/>
  <path d="M10.933.0075782c-4.8944-.0783-9.5203 3.5387-10.612 8.314-.3863 1.5723-.3139 2.6742-.3176 4.1326.01 9.3935-.022 18.788.02 28.181.2172 4.7756 3.9242 9.0962 8.6157 10.026 4.1136.9427 8.5878-.81519 11.111-4.1655 4.5198-5.1687 9.0392-10.338 13.559-15.507 4.8877 5.5667 9.7287 11.177 14.648 16.715 3.4045 3.5241 9.234 4.2191 13.383 1.6249 3.4961-2.0452 5.5273-6.1369 5.2751-10.143-.01-9.5706.013-19.141-.01-28.711-.1243-4.8445-3.8656-9.2773-8.617-10.22-4.0544-.92774-8.4814.75379-11.007 4.0344-4.5574 5.212-9.1148 10.424-13.673 15.637-4.7239-5.4024-9.4478-10.805-14.172-16.207-.5325-.64196-1.9572-1.9059-3.078-2.4318-1.5705-.83603-3.3474-1.2787-5.1268-1.2769zm0 7.2831c1.6042-.0834 2.727 1.1404 3.6466 2.2776 4.6307 5.2959 9.2615 10.592 13.892 15.888-4.9885 5.6974-9.9615 11.408-14.96 17.097-1.6051 1.7371-4.761 1.2535-5.7946-.85953-.7083-1.3946-.3373-2.9992-.4305-4.5.012-8.8714-.023-17.744.018-26.614.1476-1.8243 1.7981-3.321 3.6291-3.2892zm44.752 0c2.1283-.0653 3.8865 1.985 3.647 4.068-.01 9.6254.012 19.252-.01 28.877-.076 2.4495-2.97 4.1586-5.1528 3.057-1.3512-.70852-2.1428-2.0843-3.1853-3.153-4.2795-4.8944-8.5592-9.7888-12.838-14.683 4.9885-5.6974 9.9615-11.409 14.96-17.098.6739-.67906 1.6218-1.0718 2.5785-1.0681z" fill="url(#c)" transform="translate(-143.962 111.6905)"/>
  <path d="m28.471 25.456 4.8374 5.5326-9.1476 10.462-5.3994-4.8882 9.7096-11.106" fill="url(#d)" opacity=".5" transform="translate(-143.962 111.6905)"/>
  <path d="m33.308 19.925 4.8376 5.5319 9.8061-11.217-5.4656-4.8116-9.1781 10.497" fill="url(#e)" opacity=".5" transform="translate(-143.962 111.6905)"/>
  <path fill="#06072b" d="M96.535 95.211h264.58v132.29H96.535z"/>
  <g>
    <path d="M10.933.0075782c-4.8944-.0783-9.5203 3.5387-10.612 8.314-.3863 1.5723-.3139 2.6742-.3176 4.1326.01 9.3935-.022 18.788.02 28.181.2172 4.7756 3.9242 9.0962 8.6157 10.026 4.1136.9427 8.5878-.81519 11.111-4.1655 4.5198-5.1687 9.0392-10.338 13.559-15.507 4.8877 5.5667 9.7287 11.177 14.648 16.715 3.4045 3.5241 9.234 4.2191 13.383 1.6249 3.4961-2.0452 5.5273-6.1369 5.2751-10.143-.01-9.5706.013-19.141-.01-28.711-.1243-4.8445-3.8656-9.2773-8.617-10.22-4.0544-.92774-8.4814.75379-11.007 4.0344-4.5574 5.212-9.1148 10.424-13.673 15.637-4.7239-5.4024-9.4478-10.805-14.172-16.207-.5325-.64196-1.9572-1.9059-3.078-2.4318-1.5705-.83603-3.3474-1.2787-5.1268-1.2769zm0 7.2831c1.6042-.0834 2.727 1.1404 3.6466 2.2776 4.6307 5.2959 9.2615 10.592 13.892 15.888-4.9885 5.6974-9.9615 11.408-14.96 17.097-1.6051 1.7371-4.761 1.2535-5.7946-.85953-.7083-1.3946-.3373-2.9992-.4305-4.5.012-8.8714-.023-17.744.018-26.614.1476-1.8243 1.7981-3.321 3.6291-3.2892zm44.752 0c2.1283-.0653 3.8865 1.985 3.647 4.068-.01 9.6254.012 19.252-.01 28.877-.076 2.4495-2.97 4.1586-5.1528 3.057-1.3512-.70852-2.1428-2.0843-3.1853-3.153-4.2795-4.8944-8.5592-9.7888-12.838-14.683 4.9885-5.6974 9.9615-11.409 14.96-17.098.6739-.67906 1.6218-1.0718 2.5785-1.0681z" fill="url(#c)" transform="translate(195.51 135.9)"/>
    <path d="m28.471 25.456 4.8374 5.5326-9.1476 10.462-5.3994-4.8882 9.7096-11.106" fill="url(#d)" opacity=".5" transform="translate(195.51 135.9)"/>
    <path d="m33.308 19.925 4.8376 5.5319 9.8061-11.217-5.4656-4.8116-9.1781 10.497" fill="url(#e)" opacity=".5" transform="translate(195.51 135.9)"/>
  </g>
  <g transform="translate(-160.9 127.22)">
    <circle cx="194.76" cy="-93.354" r="33.867"/>
    <g stroke-width="1.0001">
      <path d="M10.933.0075782c-4.8944-.0783-9.5203 3.5387-10.612 8.314-.3863 1.5723-.3139 2.6742-.3176 4.1326.01 9.3935-.022 18.788.02 28.181.2172 4.7756 3.9242 9.0962 8.6157 10.026 4.1136.9427 8.5878-.81519 11.111-4.1655 4.5198-5.1687 9.0392-10.338 13.559-15.507 4.8877 5.5667 9.7287 11.177 14.648 16.715 3.4045 3.5241 9.234 4.2191 13.383 1.6249 3.4961-2.0452 5.5273-6.1369 5.2751-10.143-.01-9.5706.013-19.141-.01-28.711-.1243-4.8445-3.8656-9.2773-8.617-10.22-4.0544-.92774-8.4814.75379-11.007 4.0344-4.5574 5.212-9.1148 10.424-13.673 15.637-4.7239-5.4024-9.4478-10.805-14.172-16.207-.5325-.64196-1.9572-1.9059-3.078-2.4318-1.5705-.83603-3.3474-1.2787-5.1268-1.2769zm0 7.2831c1.6042-.0834 2.727 1.1404 3.6466 2.2776 4.6307 5.2959 9.2615 10.592 13.892 15.888-4.9885 5.6974-9.9615 11.408-14.96 17.097-1.6051 1.7371-4.761 1.2535-5.7946-.85953-.7083-1.3946-.3373-2.9992-.4305-4.5.012-8.8714-.023-17.744.018-26.614.1476-1.8243 1.7981-3.321 3.6291-3.2892zm44.752 0c2.1283-.0653 3.8865 1.985 3.647 4.068-.01 9.6254.012 19.252-.01 28.877-.076 2.4495-2.97 4.1586-5.1528 3.057-1.3512-.70852-2.1428-2.0843-3.1853-3.153-4.2795-4.8944-8.5592-9.7888-12.838-14.683 4.9885-5.6974 9.9615-11.409 14.96-17.098.6739-.67906 1.6218-1.0718 2.5785-1.0681z" fill="url(#c)" transform="translate(170.99 -111.52) scale(.71359)"/>
      <path d="m28.471 25.456 4.8374 5.5326-9.1476 10.462-5.3994-4.8882 9.7096-11.106" fill="url(#d)" opacity=".5" transform="translate(170.99 -111.52) scale(.71359)"/>
      <path d="m33.308 19.925 4.8376 5.5319 9.8061-11.217-5.4656-4.8116-9.1781 10.497" fill="url(#e)" opacity=".5" transform="translate(170.99 -111.52) scale(.71359)"/>
    </g>
  </g>
</svg>
