<svg
  width="251.85291"
  height="192.43315"
  viewBox="0 0 66.636082 50.914604"
  xmlns:xlink="http://www.w3.org/1999/xlink"
  xmlns="http://www.w3.org/2000/svg"
>
  <defs>
    <linearGradient id="c">
      <stop style="stop-color: #000; stop-opacity: 1" offset="0" />
      <stop style="stop-color: #000; stop-opacity: 0" offset="1" />
    </linearGradient>
    <linearGradient id="b">
      <stop style="stop-color: #000; stop-opacity: 1" offset="0" />
      <stop style="stop-color: #000; stop-opacity: 0" offset="1" />
    </linearGradient>
    <linearGradient
      id="a"
      x1="-1615.3"
      x2="-106.61"
      y1="-794.65002"
      y2="-794.65002"
      gradientUnits="userSpaceOnUse"
      gradientTransform="translate(1937.5698 797.96046)"
    >
      <stop stop-color="#0055d4" offset="0" />
      <stop stop-color="#0cf" offset="1" />
    </linearGradient>
    <linearGradient
      xlink:href="#a"
      id="d"
      gradientUnits="userSpaceOnUse"
      gradientTransform="matrix(.04417 0 0 .04417 71.343348 60.554928)"
      x1="-1615.3"
      y1="-794.65002"
      x2="-106.61"
      y2="-794.65002"
    />
    <linearGradient
      xlink:href="#b"
      id="e"
      x1="-2382.5259"
      y1="-262.85004"
      x2="-2390.1851"
      y2="-254.79115"
      gradientUnits="userSpaceOnUse"
      gradientTransform="translate(2413.4378 291.09805)"
    />
    <linearGradient
      xlink:href="#c"
      id="f"
      x1="-2380.1362"
      y1="-266.5983"
      x2="-2372.9219"
      y2="-272.67365"
      gradientUnits="userSpaceOnUse"
      gradientTransform="translate(2413.437 291.09805)"
    />
  </defs>
  <path
    fill="#06072b"
    style="stroke-width: 0.0358835"
    d="M-136.53821-21.632282h100v100h-100z"
  />
  <path
    d="M10.932948.00757818C6.0385484-.07072182 1.4126484 3.5462482.32074838 8.3215782c-.3863 1.5723-.3139 2.6742298-.3176 4.1326198.01 9.39349-.022 18.78787.02 28.18093.2172 4.77559 3.92420002 9.09623 8.61570002 10.02644 4.1135996.9427 8.5877996-.81519 11.1107996-4.16548 4.5198-5.1687 9.0392-10.33784 13.5591-15.50698 4.8877 5.56667 9.7287 11.17662 14.6483 16.71457 3.4045 3.52414 9.234 4.21906 13.3829 1.62494 3.4961-2.04517 5.5273-6.13688 5.2751-10.14349-.01-9.57061.013-19.14123-.01-28.7114-.1243-4.8444898-3.8656-9.2773298-8.617-10.22033982-4.0544-.92774-8.4814.75379002-11.0066 4.03438002-4.5574 5.21198-9.1148 10.4244098-13.6726 15.6368298-4.7239-5.40235-9.4478-10.8051498-14.1717-16.2074998-.5325-.64196-1.9572-1.90591-3.078-2.43179-1.5705-.83603002-3.3474-1.27874002-5.1268-1.27689002zm0 7.28309002c1.6042-.0834 2.727 1.14036 3.6466 2.27763 4.6307 5.2959098 9.2615 10.5922598 13.8917 15.8881598-4.9885 5.69741-9.9615 11.4085-14.9597 17.09707-1.6051 1.73709-4.7609996 1.25353-5.7945996-.85953-.7083-1.39465-.3373-2.99919-.4305-4.49998.012-8.87141-.023-17.74371.018-26.61424.1476-1.8242798 1.7981-3.3209998 3.6290996-3.2891998zm44.7524 0c2.1283-.0653 3.8865 1.98501 3.647 4.0680398-.01 9.62538.012 19.25165-.01 28.87659-.076 2.44946-2.97 4.15859-5.1528 3.05696-1.3512-.70852-2.1428-2.08426-3.1853-3.15302-4.2795-4.89441-8.5592-9.78882-12.8383-14.68278 4.9885-5.6974 9.9615-11.40894 14.9602-17.0975098.6739-.67906 1.6218-1.07177 2.5785-1.06811z"
    fill="url(#a)"
    style="fill: url(#d); stroke-width: 0.0441694"
  />
  <path
    style="
      opacity: 0.5;
      fill: url(#e);
      fill-opacity: 1;
      stroke: none;
      stroke-width: 0;
      stroke-linecap: butt;
      stroke-linejoin: miter;
      stroke-miterlimit: 4;
      stroke-dasharray: none;
      stroke-opacity: 1;
    "
    d="m28.471348 25.456458 4.8374 5.53265-9.1476 10.462-5.3994-4.88822 9.7096-11.10643"
  />
  <path
    style="
      opacity: 0.5;
      fill: url(#f);
      fill-opacity: 1;
      stroke: none;
      stroke-width: 0;
      stroke-linecap: butt;
      stroke-linejoin: miter;
      stroke-miterlimit: 4;
      stroke-dasharray: none;
      stroke-opacity: 1;
    "
    d="m33.308348 19.924598 4.8376 5.53186 9.8061-11.21693-5.4656-4.8115798-9.1781 10.4966498"
  />
</svg>
